solid OpenSCAD_Model
  facet normal 0 1 0
    outer loop
      vertex 1.25 0 3.2
      vertex -1.25 0 3.2
      vertex -1.25 0 9.59999
    endloop
  endfacet
  facet normal 0 1 -0
    outer loop
      vertex 1.25 0 3.2
      vertex -1.25 0 9.59999
      vertex 1.25 0 9.59999
    endloop
  endfacet
  facet normal 0 -1 0
    outer loop
      vertex -1.25 -128 9.59999
      vertex -1.25 -128 3.2
      vertex 1.25 -128 3.2
    endloop
  endfacet
  facet normal -0 -1 -0
    outer loop
      vertex 1.25 -128 9.59999
      vertex -1.25 -128 9.59999
      vertex 1.25 -128 3.2
    endloop
  endfacet
  facet normal -0 0 -1
    outer loop
      vertex 1.25 0 3.2
      vertex -1.25 -128 3.2
      vertex -1.25 0 3.2
    endloop
  endfacet
  facet normal 0 -0 -1
    outer loop
      vertex 1.25 0 3.2
      vertex 1.25 -128 3.2
      vertex -1.25 -128 3.2
    endloop
  endfacet
  facet normal 1 0 0
    outer loop
      vertex 1.25 0 9.59999
      vertex 1.25 -128 3.2
      vertex 1.25 0 3.2
    endloop
  endfacet
  facet normal 1 0 0
    outer loop
      vertex 1.25 0 9.59999
      vertex 1.25 -128 9.59999
      vertex 1.25 -128 3.2
    endloop
  endfacet
  facet normal -0 0 1
    outer loop
      vertex -1.25 0 9.59999
      vertex 1.25 -128 9.59999
      vertex 1.25 0 9.59999
    endloop
  endfacet
  facet normal 0 0 1
    outer loop
      vertex -1.25 0 9.59999
      vertex -1.25 -128 9.59999
      vertex 1.25 -128 9.59999
    endloop
  endfacet
  facet normal -1 0 0
    outer loop
      vertex -1.25 0 3.2
      vertex -1.25 -128 9.59999
      vertex -1.25 0 9.59999
    endloop
  endfacet
  facet normal -1 0 0
    outer loop
      vertex -1.25 0 3.2
      vertex -1.25 -128 3.2
      vertex -1.25 -128 9.59999
    endloop
  endfacet
endsolid OpenSCAD_Model
